<svg role="img" width="500" height="500" viewBox="-13 0 500 500" fill="none" xmlns="http://www.w3.org/2000/svg">
  <title>Electron Mail</title>
  <defs>
    <style id="current-color-scheme" type="text/css">
      .ColorScheme-Text { color:#d3dae3; }
    </style>
  </defs>
  <g transform="translate(-13 0) scale(.510725)">
    <g transform="translate(0 97)">
      <path class="ColorScheme-Text" fill="currentColor" d="M0 22.5541C0 3.48617 22.2124 -6.94596 36.8738 5.23613L424.677 327.46C462.177 358.619 516.546 358.619 554.046 327.46L941.85 5.23618C956.511 -6.94591 978.723 3.48621 978.723 22.5541V683.7C978.723 739.646 933.393 785 877.476 785H101.247C45.3299 785 0 739.646 0 683.7V22.5541Z"/>
      <path opacity=".9" fill-rule="evenodd" clip-rule="evenodd" fill="#abb2bf" d="M621.492 271.42L621.546 271.464L426.244 444.071C392.975 473.475 343.246 474.216 309.116 445.817L0 188.604V22.5541C0 3.48617 22.2124 -6.94596 36.8738 5.23613L424.677 327.46C462.177 358.619 516.546 358.619 554.046 327.46L621.492 271.42Z"/>
      <path opacity=".62" fill-rule="evenodd" clip-rule="evenodd" fill="#5c6370" d="M770.604 147.526V785H877.476C933.393 785 978.723 739.642 978.723 683.699V22.5548C978.723 3.4868 956.51 -6.94715 941.849 5.23724L770.604 147.526Z"/>
    </g>
  </g>
</svg>
