<svg xmlns="http://www.w3.org/2000/svg" width="500" height="500" viewBox="-13 0 500 500" aria-labelledby="title" role="img">
  <title>USB</title>
  <defs>
    <style id="current-color-scheme" type="text/css">
      .ColorScheme-Text { color:#d3dae3; }
    </style>
  </defs>
  <g transform="translate(-13 0) scale(.559597)">
    <path
      class="ColorScheme-Text"
      fill="currentColor"
      opacity=".72"
      d="M81.25 20v489.5h731V20c0-11.046-8.954-20-20-20h-691c-11.046 0-20 8.954-20 20zM515.461 107.894c0-11.045 8.954-20 20-20h157.215c11.046 0 20 8.955 20 20v91.212c0 11.045-8.954 20-20 20H535.461c-11.046 0-20-8.955-20-20v-91.212zM180.824 107.894c0-11.045 8.954-20 20-20h157.215c11.046 0 20 8.955 20 20v91.212c0 11.045-8.954 20-20 20H200.824c-11.046 0-20-8.955-20-20v-91.212z"
    />
    <path
      class="ColorScheme-Text"
      fill="currentColor"
      d="M858.75 529.5h-824c-11.046 0-20 8.954-20 20v324c0 11.046 8.954 20 20 20h824c11.046 0 20-8.954 20-20v-324c0-11.046-8.954-20-20-20z"
    />
  </g>
</svg>
